Coordinates
version=1
nRows=38
nColumns=12
inDegrees=yes

Units are S.I. units (second, meters, Newtons, ...)
Angles are in degrees

endheader
time	SC_y	SC_z	SC_x	AC_y	AC_z	AC_x	GH_y	GH_z	GH_yy	EL_x	PS_y
       0.0              -50.88          2.002          28.89          41.94         -15.04          1.978         -133.4          72.79         -56.94          28.48          155.3
   0.02082              -50.88          2.007          28.89          41.93         -15.04          1.977         -133.4          72.79         -56.91          28.49          155.3
   0.04164              -50.87          2.012           28.9          41.93         -15.04          1.976         -133.3          72.78         -56.89          28.49          155.3
   0.06247              -50.86          2.017          28.91          41.93         -15.03          1.976         -133.3          72.77         -56.86          28.49          155.3
   0.08329              -50.86          2.023          28.92          41.93         -15.03          1.975         -133.2          72.76         -56.83           28.5          155.3
    0.1041              -50.85          2.029          28.93          41.93         -15.03          1.973         -133.2          72.75          -56.8           28.5          155.3
    0.1249              -50.84          2.035          28.94          41.92         -15.02          1.972         -133.1          72.73         -56.77          28.51          155.3
    0.1458              -50.84          2.042          28.95          41.92         -15.02          1.971         -133.1          72.72         -56.74          28.51          155.3
    0.1666              -50.83          2.049          28.97          41.92         -15.01           1.97         -133.0          72.71          -56.7          28.52          155.3
    0.1874              -50.82          2.057          28.98          41.92         -15.01          1.968         -133.0          72.69         -56.66          28.52          155.3
    0.2082              -50.81          2.065           29.0          41.92          -15.0          1.967         -132.9          72.68         -56.62          28.53          155.3
     0.229               -50.8          2.074          29.01          41.91          -15.0          1.965         -132.8          72.66         -56.57          28.53          155.3
    0.2499              -50.79          2.084          29.03          41.91         -14.99          1.963         -132.8          72.64         -56.52          28.54          155.3
    0.2707              -50.77          2.094          29.05          41.91         -14.99          1.962         -132.7          72.62         -56.47          28.55          155.3
    0.2915              -50.76          2.106          29.07           41.9         -14.98           1.96         -132.6           72.6         -56.41          28.56          155.3
    0.3123              -50.75          2.118          29.09           41.9         -14.97          1.957         -132.5          72.58         -56.35          28.57          155.3
    0.3332              -50.73          2.131          29.11          41.89         -14.96          1.955         -132.4          72.56         -56.28          28.58          155.3
     0.354              -50.71          2.146          29.13          41.89         -14.95          1.952         -132.3          72.53          -56.2          28.59          155.3
    0.3748               -50.7          2.162          29.16          41.88         -14.95          1.949         -132.2           72.5         -56.12           28.6          155.3
    0.3956              -50.68          2.179          29.19          41.88         -14.93          1.946         -132.0          72.47         -56.03          28.61          155.3
    0.4164              -50.65          2.198          29.23          41.87         -14.92          1.943         -131.9          72.43         -55.94          28.62          155.3
    0.4373              -50.63          2.219          29.26          41.87         -14.91          1.939         -131.7           72.4         -55.83          28.64          155.3
    0.4581               -50.6          2.242           29.3          41.86          -14.9          1.935         -131.6          72.35         -55.71          28.66          155.2
    0.4789              -50.57          2.268          29.35          41.85         -14.88           1.93         -131.4           72.3         -55.58          28.67          155.2
    0.4997              -50.54          2.297           29.4          41.84         -14.86          1.925         -131.1          72.25         -55.43          28.69          155.2
    0.5205               -50.5          2.328          29.45          41.83         -14.84          1.919         -130.9          72.19         -55.27          28.72          155.2
    0.5414              -50.46          2.364          29.51          41.82         -14.82          1.913         -130.6          72.13         -55.09          28.74          155.2
    0.5622              -50.42          2.404          29.58          41.81          -14.8          1.906         -130.3          72.05         -54.88          28.77          155.2
     0.583              -50.36           2.45          29.66          41.79         -14.77          1.897         -130.0          71.97         -54.65           28.8          155.2
    0.6038               -50.3          2.501          29.75          41.77         -14.74          1.888         -129.6          71.88         -54.39          28.84          155.2
    0.6247              -50.23           2.56          29.85          41.76          -14.7          1.877         -129.1          71.77         -54.09          28.88          155.2
    0.6455              -50.16          2.628          29.97          41.73         -14.66          1.865         -128.6          71.64         -53.74          28.93          155.2
    0.6663              -50.07          2.706          30.11          41.71         -14.62          1.851         -128.0           71.5         -53.34          28.99          155.2
    0.6871              -49.96          2.796          30.26          41.68         -14.56          1.835         -127.3          71.33         -52.88          29.05          155.1
    0.7079              -49.84          2.902          30.45          41.65          -14.5          1.815         -126.5          71.14         -52.34          29.13          155.1
    0.7288              -49.69          3.027          30.66          41.61         -14.42          1.793         -125.5          70.91          -51.7          29.22          155.1
    0.7496              -49.52          3.176          30.92          41.56         -14.33          1.766         -124.4          70.63         -50.94          29.33          155.1
    0.7704              -49.31          3.354          31.23           41.5         -14.23          1.734         -123.0          70.31         -50.04          29.45          155.0
